{"glyphs":{":":{"x_min":0,"x_max":333,"ha":333,"o":"m 96 367 l 96 505 l 237 505 l 237 367 z m 96 0 l 96 137 l 237 137 l 237 0 z"},"$":{"x_min":0,"x_max":556,"ha":556,"o":"m 542 201 q 542 113 483 64 q 423 16 307 11 l 307 -74 l 254 -74 l 254 10 q 149 14 90 59 q 32 105 13 199 l 138 222 q 147 167 175 141 q 203 116 254 111 l 254 302 q 252 303 247 304 q 241 305 239 305 q 160 323 119 348 q 79 373 57 410 q 35 448 35 503 q 35 584 91 628 q 147 673 254 677 l 254 742 l 307 742 l 307 677 q 371 674 414 656 q 457 639 483 604 q 509 570 525 506 l 396 487 q 389 529 367 552 q 346 576 307 581 l 307 409 l 312 408 q 327 408 399 385 q 471 361 506 316 q 542 270 542 201 z m 254 583 q 163 576 163 505 q 163 483 171 469 q 178 455 193 446 q 207 437 254 421 z m 415 199 q 415 224 406 239 q 397 254 381 264 q 364 274 307 290 l 307 111 q 415 118 415 199 z"},"?":{"x_min":0,"x_max":611,"ha":611,"o":"m 553 501 q 553 454 532 416 q 511 378 453 337 l 416 310 q 382 286 366 262 q 350 237 348 208 l 218 208 q 221 258 246 297 q 271 336 320 370 q 372 406 394 434 q 415 461 415 495 q 415 538 387 563 q 359 588 307 588 q 258 588 224 559 q 191 530 185 483 l 46 489 q 59 588 127 643 q 196 698 305 698 q 421 698 487 646 q 553 593 553 501 z m 214 0 l 214 132 l 355 132 l 355 0 z"},"<":{"x_min":0,"x_max":584,"ha":584,"o":"m 42 252 l 42 409 l 543 600 l 543 489 l 137 330 l 543 172 l 543 61 z"},"'":{"x_min":0,"x_max":238,"ha":238,"o":"m 173 438 l 66 438 l 53 688 l 186 688 z"},"=":{"x_min":0,"x_max":584,"ha":584,"o":"m 42 411 l 42 520 l 543 520 l 543 411 z m 42 142 l 42 250 l 543 250 l 543 142 z"},"a":{"x_min":0,"x_max":556,"ha":556,"o":"m 192 -10 q 115 -10 72 32 q 29 74 29 149 q 29 231 83 274 q 136 317 238 318 l 352 320 l 352 347 q 352 399 333 424 q 315 449 274 449 q 236 449 219 432 q 201 415 196 375 l 53 381 q 66 458 124 498 q 181 538 280 538 q 380 538 435 489 q 489 439 489 349 l 489 156 q 489 112 499 95 q 509 78 532 78 q 548 78 562 81 l 562 7 q 550 4 541 1 q 531 -1 521 -2 q 511 -4 500 -5 q 489 -6 475 -6 q 423 -6 398 20 q 374 45 369 94 l 366 94 q 308 -10 192 -10 z m 352 245 l 281 244 q 233 242 213 233 q 193 225 183 207 q 172 189 172 160 q 172 123 190 104 q 207 86 236 86 q 268 86 295 104 q 321 121 336 152 q 352 183 352 218 z"},"L":{"x_min":0,"x_max":611,"ha":611,"o":"m 67 0 l 67 688 l 211 688 l 211 111 l 580 111 l 580 0 z"},"3":{"x_min":0,"x_max":556,"ha":556,"o":"m 520 191 q 520 94 457 42 q 393 -11 276 -11 q 165 -11 100 40 q 34 91 23 187 l 163 199 q 176 100 275 100 q 325 100 352 125 q 379 149 379 199 q 379 245 346 270 q 313 294 248 294 l 200 294 l 200 405 l 245 405 q 304 405 333 429 q 363 453 363 498 q 363 541 340 565 q 316 589 271 589 q 228 589 202 565 q 176 542 172 499 l 35 509 q 45 598 108 648 q 171 698 273 698 q 381 698 442 650 q 502 601 502 515 q 502 451 465 409 q 427 368 355 354 l 355 352 q 435 343 477 300 q 520 257 520 191 z"},";":{"x_min":0,"x_max":333,"ha":333,"o":"m 97 367 l 97 505 l 238 505 l 238 367 z m 238 32 q 238 -26 225 -71 q 213 -116 185 -155 l 95 -155 q 126 -115 143 -75 q 160 -35 160 0 l 97 0 l 97 137 l 238 137 z"},"J":{"x_min":0,"x_max":556,"ha":556,"o":"m 256 -10 q 149 -10 92 37 q 34 83 15 187 l 158 208 q 167 154 191 129 q 215 103 257 103 q 300 103 322 132 q 344 161 344 214 l 344 575 l 207 575 l 207 688 l 488 688 l 488 218 q 488 110 427 50 q 366 -10 256 -10 z"},"V":{"x_min":0,"x_max":667,"ha":667,"o":"m 407 0 l 261 0 l 7 688 l 157 688 l 299 246 q 312 203 335 116 l 345 158 l 370 246 l 511 688 l 660 688 z"},"\"":{"x_min":0,"x_max":474,"ha":474,"o":"m 394 438 l 287 438 l 274 688 l 408 688 z m 186 438 l 79 438 l 66 688 l 199 688 z"},"7":{"x_min":0,"x_max":556,"ha":556,"o":"m 512 579 q 466 506 425 437 q 383 368 353 299 q 322 229 304 156 q 286 82 286 0 l 143 0 q 143 86 166 166 q 188 247 230 330 q 273 413 385 575 l 43 575 l 43 688 l 512 688 z"},"S":{"x_min":0,"x_max":667,"ha":667,"o":"m 628 198 q 628 97 553 44 q 478 -10 333 -10 q 201 -10 125 37 q 50 84 29 179 l 168 202 q 182 147 223 123 q 264 98 337 98 q 488 98 488 190 q 488 219 470 238 q 453 257 422 270 q 390 283 301 301 q 224 319 193 330 q 163 341 139 356 q 114 371 97 392 q 80 413 71 441 q 61 469 61 506 q 61 599 131 649 q 201 698 335 698 q 463 698 527 658 q 591 618 610 526 l 470 507 q 459 551 427 574 q 394 596 332 596 q 201 596 201 514 q 201 487 215 470 q 229 453 256 441 q 284 429 367 411 q 466 390 509 372 q 552 354 577 331 q 602 307 615 274 q 628 241 628 198 z"},"}":{"x_min":0,"x_max":389,"ha":389,"o":"m 21 -114 l 49 -114 q 94 -114 114 -89 q 133 -64 133 -12 l 133 135 q 133 180 160 213 q 188 247 234 258 l 234 260 q 189 269 161 302 q 133 336 133 383 l 133 530 q 133 581 114 606 q 94 632 49 632 l 21 632 l 21 725 l 117 725 q 185 725 223 687 q 261 650 261 579 l 261 418 q 261 364 288 336 q 315 308 374 306 l 374 210 q 315 209 288 181 q 261 153 261 99 l 261 -62 q 261 -130 222 -169 q 183 -208 117 -208 l 21 -208 z"},"Z":{"x_min":0,"x_max":611,"ha":611,"o":"m 582 0 l 30 0 l 30 102 l 402 575 l 67 575 l 67 688 l 562 688 l 562 588 l 190 113 l 582 113 z"},"x":{"x_min":0,"x_max":556,"ha":556,"o":"m 400 0 l 277 191 l 153 0 l 7 0 l 200 273 l 16 528 l 164 528 l 277 355 l 389 528 l 538 528 l 354 274 l 549 0 z"},")":{"x_min":0,"x_max":333,"ha":333,"o":"m 1 -208 q 79 -93 114 16 q 148 125 148 259 q 148 393 113 504 q 78 614 1 725 l 138 725 q 215 614 249 504 q 283 394 283 259 q 283 124 249 14 q 215 -96 138 -208 z"},"&":{"x_min":0,"x_max":722,"ha":722,"o":"m 44 188 q 44 254 83 305 q 123 357 209 397 q 173 470 173 533 q 173 609 221 651 q 269 692 357 692 q 439 692 487 653 q 534 614 534 547 q 534 509 515 479 q 496 449 461 423 q 426 397 343 358 q 391 272 462 194 q 513 271 539 371 l 641 337 q 608 223 547 132 q 589 96 634 96 q 666 96 691 104 l 691 5 q 664 -6 627 -6 q 585 -6 543 9 q 500 24 466 53 q 383 -10 281 -10 q 168 -10 106 42 q 44 94 44 188 z m 425 546 q 425 574 406 591 q 388 609 356 609 q 318 609 299 588 q 279 567 279 532 q 279 490 305 438 q 356 460 379 475 q 401 490 413 507 q 425 524 425 546 z m 385 120 q 304 210 252 304 q 168 265 168 190 q 168 142 200 112 q 231 83 286 83 q 318 83 344 95 q 369 106 385 120 z"},"_":{"x_min":0,"x_max":556,"ha":556,"o":"m -10 -122 l -10 -84 l 565 -84 l 565 -122 z"},"v":{"x_min":0,"x_max":556,"ha":556,"o":"m 357 0 l 193 0 l 4 528 l 149 528 l 241 233 q 249 208 276 111 q 281 131 296 181 q 311 231 408 528 l 552 528 z"},"O":{"x_min":0,"x_max":778,"ha":778,"o":"m 736 347 q 736 240 693 158 q 651 77 572 33 q 493 -10 387 -10 q 225 -10 133 86 q 41 181 41 347 q 41 513 133 605 q 225 698 388 698 q 552 698 644 604 q 736 511 736 347 z m 589 347 q 589 458 536 522 q 483 585 388 585 q 292 585 239 522 q 186 459 186 347 q 186 234 240 169 q 294 104 387 104 q 484 104 536 167 q 589 230 589 347 z"},"(":{"x_min":0,"x_max":333,"ha":333,"o":"m 195 -208 q 118 -97 84 13 q 50 123 50 259 q 50 396 84 505 q 118 615 195 725 l 332 725 q 255 613 220 503 q 185 393 185 259 q 185 125 220 16 q 254 -94 332 -208 z"},"C":{"x_min":0,"x_max":722,"ha":722,"o":"m 388 104 q 519 104 569 234 l 695 187 q 654 87 576 39 q 498 -10 388 -10 q 222 -10 132 84 q 41 178 41 347 q 41 517 128 607 q 216 698 382 698 q 503 698 579 650 q 655 601 686 507 l 559 472 q 543 524 496 554 q 449 585 385 585 q 287 585 237 524 q 186 464 186 347 q 186 229 238 166 q 290 104 388 104 z"},"W":{"x_min":0,"x_max":944,"ha":944,"o":"m 765 0 l 594 0 l 501 398 q 484 468 472 545 q 460 481 453 448 q 446 414 349 0 l 178 0 l 1 688 l 147 688 l 247 244 l 269 136 q 283 204 296 266 q 309 328 393 688 l 554 688 l 641 322 q 651 281 676 136 l 688 193 l 714 305 l 797 688 l 943 688 z"},"A":{"x_min":0,"x_max":722,"ha":722,"o":"m 553 0 l 492 176 l 230 176 l 169 0 l 25 0 l 276 688 l 446 688 l 696 0 z m 361 582 l 358 571 q 353 554 346 531 q 339 509 262 284 l 460 284 l 392 482 l 371 548 z"},"f":{"x_min":0,"x_max":333,"ha":333,"o":"m 231 436 l 231 0 l 94 0 l 94 436 l 17 436 l 17 528 l 94 528 l 94 583 q 94 655 132 690 q 170 725 248 725 q 287 725 335 717 l 335 628 q 315 633 295 633 q 260 633 245 619 q 231 605 231 570 l 231 528 l 335 528 l 335 436 z"},"Q":{"x_min":0,"x_max":778,"ha":778,"o":"m 736 347 q 736 209 668 118 q 601 26 480 2 q 497 -46 527 -68 q 557 -89 611 -89 q 640 -89 669 -84 l 668 -183 q 606 -197 550 -197 q 470 -197 418 -152 q 366 -108 334 -5 q 195 8 118 101 q 41 194 41 347 q 41 513 133 605 q 225 698 388 698 q 552 698 644 604 q 736 511 736 347 z m 589 347 q 589 458 536 522 q 483 585 388 585 q 292 585 239 522 q 186 459 186 347 q 186 234 240 168 q 293 103 387 103 q 484 103 536 167 q 589 230 589 347 z"},"w":{"x_min":0,"x_max":778,"ha":778,"o":"m 641 0 l 496 0 l 412 322 q 406 344 389 431 l 364 321 l 279 0 l 134 0 l -3 528 l 126 528 l 213 125 l 220 161 l 232 218 l 315 528 l 462 528 l 543 218 q 550 192 563 125 l 577 189 l 653 528 l 780 528 z"},"-":{"x_min":0,"x_max":333,"ha":333,"o":"m 39 200 l 39 319 l 293 319 l 293 200 z"},"E":{"x_min":0,"x_max":667,"ha":667,"o":"m 67 0 l 67 688 l 608 688 l 608 577 l 211 577 l 211 404 l 578 404 l 578 292 l 211 292 l 211 111 l 628 111 l 628 0 z"},"s":{"x_min":0,"x_max":556,"ha":556,"o":"m 515 154 q 515 78 452 34 q 390 -10 279 -10 q 170 -10 112 25 q 54 59 35 132 l 156 150 q 166 112 191 97 q 216 81 279 81 q 336 81 363 96 q 389 110 389 142 q 389 167 368 182 q 347 197 296 207 q 180 230 139 250 q 99 270 77 301 q 56 333 56 378 q 56 454 115 496 q 173 539 280 539 q 374 539 431 502 q 489 465 503 396 l 381 383 q 375 416 353 431 q 330 447 280 447 q 231 447 207 435 q 182 422 182 393 q 182 370 201 357 q 220 343 264 334 q 326 322 374 308 q 422 295 451 276 q 480 258 498 229 q 515 200 515 154 z"},">":{"x_min":0,"x_max":584,"ha":584,"o":"m 42 61 l 42 172 l 448 330 l 42 489 l 42 600 l 543 409 l 543 252 z"},"l":{"x_min":0,"x_max":278,"ha":278,"o":"m 70 0 l 70 725 l 207 725 l 207 0 z"},"8":{"x_min":0,"x_max":556,"ha":556,"o":"m 525 194 q 525 97 461 44 q 397 -10 279 -10 q 161 -10 96 43 q 32 97 32 193 q 32 259 70 304 q 108 349 172 360 l 172 362 q 116 374 82 417 q 48 460 48 516 q 48 601 108 649 q 167 698 277 698 q 389 698 448 651 q 508 603 508 515 q 508 459 474 417 q 440 374 383 363 l 383 361 q 450 350 488 306 q 525 263 525 194 z m 367 508 q 367 557 345 579 q 322 602 277 602 q 188 602 188 508 q 188 409 278 409 q 323 409 345 432 q 367 455 367 508 z m 383 205 q 383 313 276 313 q 226 313 199 285 q 173 256 173 203 q 173 143 199 115 q 226 87 280 87 q 333 87 358 115 q 383 143 383 205 z"},"\\":{"x_min":0,"x_max":278,"ha":278,"o":"m 150 -20 l 10 725 l 126 725 l 269 -20 z"},"e":{"x_min":0,"x_max":556,"ha":556,"o":"m 286 -10 q 167 -10 103 61 q 39 131 39 267 q 39 397 104 468 q 169 538 288 538 q 402 538 462 463 q 522 387 522 242 l 522 238 l 183 238 q 183 161 212 121 q 240 82 293 82 q 366 82 385 145 l 514 134 q 458 -10 286 -10 z m 286 452 q 238 452 212 418 q 186 384 184 324 l 389 324 q 385 388 358 420 q 332 452 286 452 z"},"b":{"x_min":0,"x_max":611,"ha":611,"o":"m 570 266 q 570 135 517 63 q 465 -10 367 -10 q 311 -10 270 15 q 229 39 207 85 l 206 85 q 206 68 204 38 q 202 8 199 0 l 66 0 q 70 45 70 121 l 70 725 l 207 725 l 207 522 l 205 437 l 207 437 q 253 538 376 538 q 470 538 520 467 q 570 396 570 266 z m 427 266 q 427 356 400 399 q 374 443 319 443 q 263 443 234 396 q 205 350 205 262 q 205 178 234 131 q 262 84 318 84 q 427 84 427 266 z"},"%":{"x_min":0,"x_max":889,"ha":889,"o":"m 863 211 q 863 104 819 48 q 775 -8 690 -8 q 604 -8 561 48 q 517 104 517 211 q 517 320 559 375 q 601 430 692 430 q 780 430 821 375 q 863 319 863 211 z m 270 0 l 169 0 l 618 688 l 720 688 z m 199 696 q 287 696 329 641 q 371 585 371 477 q 371 371 327 314 q 283 258 197 258 q 112 258 68 314 q 25 370 25 477 q 25 588 67 642 q 109 696 199 696 z m 758 211 q 758 289 743 322 q 728 355 692 355 q 653 355 638 321 q 623 288 623 211 q 623 133 639 101 q 654 69 691 69 q 727 69 742 102 q 758 135 758 211 z m 265 477 q 265 554 250 587 q 235 620 199 620 q 160 620 145 587 q 130 554 130 477 q 130 400 146 367 q 162 334 198 334 q 234 334 250 367 q 265 400 265 477 z"},"m":{"x_min":0,"x_max":889,"ha":889,"o":"m 381 0 l 381 296 q 381 436 301 436 q 259 436 233 393 q 207 351 207 283 l 207 0 l 70 0 l 70 410 q 70 453 69 480 q 67 507 66 528 l 197 528 q 198 519 201 479 q 203 438 203 423 l 205 423 q 230 484 268 511 q 306 539 359 539 q 480 539 506 423 l 509 423 q 536 485 573 512 q 611 539 669 539 q 746 539 787 486 q 827 434 827 335 l 827 0 l 691 0 l 691 296 q 691 436 611 436 q 571 436 545 397 q 520 358 517 290 l 517 0 z"},"#":{"x_min":0,"x_max":556,"ha":556,"o":"m 444 421 l 410 259 l 515 259 l 515 186 l 395 186 l 355 0 l 279 0 l 318 186 l 168 186 l 129 0 l 54 0 l 93 186 l 17 186 l 17 259 l 109 259 l 143 421 l 42 421 l 42 493 l 158 493 l 199 681 l 274 681 l 234 493 l 384 493 l 425 681 l 501 681 l 460 493 l 540 493 l 540 421 z m 219 421 l 184 259 l 335 259 l 369 421 z"},",":{"x_min":0,"x_max":278,"ha":278,"o":"m 211 32 q 211 -26 198 -71 q 186 -116 158 -155 l 68 -155 q 97 -120 115 -79 q 133 -37 133 0 l 70 0 l 70 149 l 211 149 z"},"n":{"x_min":0,"x_max":611,"ha":611,"o":"m 412 0 l 412 296 q 412 436 318 436 q 268 436 238 393 q 207 350 207 283 l 207 0 l 70 0 l 70 410 q 70 453 69 480 q 67 507 66 528 l 197 528 q 198 519 201 479 q 203 438 203 423 l 205 423 q 233 484 275 511 q 317 539 375 539 q 459 539 504 487 q 549 435 549 335 l 549 0 z"},"h":{"x_min":0,"x_max":611,"ha":611,"o":"m 205 423 q 233 483 275 511 q 317 538 375 538 q 459 538 504 486 q 549 435 549 335 l 549 0 l 412 0 l 412 296 q 412 435 318 435 q 268 435 238 392 q 207 350 207 283 l 207 0 l 70 0 l 70 725 l 207 725 l 207 527 q 207 474 203 423 z"},"z":{"x_min":0,"x_max":500,"ha":500,"o":"m 40 0 l 40 97 l 289 429 l 60 429 l 60 528 l 440 528 l 440 430 l 193 100 l 464 100 l 464 0 z"},"B":{"x_min":0,"x_max":722,"ha":722,"o":"m 677 196 q 677 103 606 51 q 536 0 411 0 l 67 0 l 67 688 l 382 688 q 508 688 573 644 q 637 601 637 515 q 637 457 605 416 q 572 376 506 362 q 589 352 633 309 q 677 267 677 196 z m 492 496 q 492 542 463 562 q 433 581 375 581 l 211 581 l 211 411 l 376 411 q 437 411 465 432 q 492 453 492 496 z m 532 208 q 532 304 394 304 l 211 304 l 211 107 l 399 107 q 468 107 500 132 q 532 157 532 208 z"},"K":{"x_min":0,"x_max":722,"ha":722,"o":"m 543 0 l 296 316 l 211 251 l 211 0 l 67 0 l 67 688 l 211 688 l 211 376 l 521 688 l 689 688 l 395 397 l 713 0 z"},"R":{"x_min":0,"x_max":722,"ha":722,"o":"m 540 0 l 380 261 l 211 261 l 211 0 l 67 0 l 67 688 l 411 688 q 534 688 601 635 q 667 582 667 483 q 667 411 626 358 q 585 306 516 289 l 702 0 z m 522 477 q 522 576 396 576 l 211 576 l 211 373 l 399 373 q 460 373 491 400 q 522 428 522 477 z"},"T":{"x_min":0,"x_max":611,"ha":611,"o":"m 377 577 l 377 0 l 233 0 l 233 577 l 11 577 l 11 688 l 600 688 l 600 577 z"},"P":{"x_min":0,"x_max":667,"ha":667,"o":"m 633 470 q 633 404 603 352 q 572 299 516 271 q 459 242 382 242 l 211 242 l 211 0 l 67 0 l 67 688 l 376 688 q 500 688 566 631 q 633 574 633 470 z m 488 468 q 488 576 360 576 l 211 576 l 211 353 l 364 353 q 423 353 456 383 q 488 412 488 468 z"},"|":{"x_min":0,"x_max":280,"ha":280,"o":"m 76 -222 l 76 725 l 204 725 l 204 -222 z"},"t":{"x_min":0,"x_max":333,"ha":333,"o":"m 205 -9 q 145 -9 112 24 q 79 57 79 124 l 79 436 l 12 436 l 12 528 l 86 528 l 129 652 l 215 652 l 215 528 l 315 528 l 315 436 l 215 436 l 215 161 q 215 123 229 104 q 244 86 275 86 q 291 86 321 93 l 321 8 q 270 -9 205 -9 z"},"M":{"x_min":0,"x_max":833,"ha":833,"o":"m 638 0 l 638 417 q 638 431 638 445 q 639 459 643 567 q 608 436 592 384 l 468 0 l 365 0 l 241 384 l 189 567 q 195 454 195 417 l 195 0 l 67 0 l 67 688 l 260 688 l 383 303 l 394 266 l 417 174 l 448 284 l 574 688 l 766 688 l 766 0 z"},"g":{"x_min":0,"x_max":611,"ha":611,"o":"m 291 -212 q 194 -212 135 -175 q 77 -138 63 -70 l 200 -54 q 208 -85 232 -104 q 256 -122 295 -122 q 352 -122 378 -86 q 405 -51 405 18 l 405 46 l 406 98 l 405 98 q 359 1 235 1 q 143 1 92 70 q 41 140 41 269 q 41 398 93 468 q 146 539 245 539 q 360 539 405 443 l 407 443 q 407 460 409 490 q 412 519 414 528 l 544 528 q 541 476 541 406 l 541 16 q 541 -97 477 -154 q 413 -212 291 -212 z m 406 271 q 406 353 377 399 q 348 444 294 444 q 184 444 184 269 q 184 96 293 96 q 348 96 377 142 q 406 188 406 271 z"},"j":{"x_min":0,"x_max":278,"ha":278,"o":"m 70 624 l 70 725 l 208 725 l 208 624 z m 67 -208 q 19 -208 -16 -203 l -16 -106 l 9 -108 q 44 -108 57 -93 q 70 -78 70 -29 l 70 528 l 208 528 l 208 -62 q 208 -132 172 -170 q 137 -208 67 -208 z"},"i":{"x_min":0,"x_max":278,"ha":278,"o":"m 70 624 l 70 725 l 207 725 l 207 624 z m 70 0 l 70 528 l 207 528 l 207 0 z"},"y":{"x_min":0,"x_max":556,"ha":556,"o":"m 138 -208 q 89 -208 52 -201 l 52 -104 q 78 -107 99 -107 q 128 -107 148 -98 q 167 -89 182 -67 q 198 -46 217 5 l 8 528 l 153 528 l 236 281 q 255 228 285 118 l 297 164 l 329 279 l 407 528 l 551 528 l 342 -28 q 300 -129 255 -168 q 209 -208 138 -208 z"},"@":{"x_min":0,"x_max":975,"ha":975,"o":"m 917 354 q 917 265 886 192 q 855 119 800 77 q 746 36 682 36 q 637 36 613 58 q 589 81 589 120 q 589 138 592 153 l 589 153 q 564 102 516 69 q 468 36 418 36 q 341 36 299 86 q 257 135 257 224 q 257 304 288 374 q 320 443 376 483 q 432 523 501 523 q 596 523 630 438 l 633 438 l 652 512 l 728 512 l 671 265 q 653 181 653 148 q 653 124 664 113 q 676 103 691 103 q 730 103 766 137 q 801 171 822 228 q 843 285 843 353 q 843 438 805 504 q 768 570 698 605 q 627 641 534 641 q 417 641 328 590 q 238 539 187 442 q 136 345 136 225 q 136 130 175 58 q 214 -14 284 -51 q 354 -88 449 -88 q 593 -88 737 -12 l 767 -72 q 685 -118 607 -138 q 528 -158 446 -158 q 331 -158 243 -112 q 155 -65 106 23 q 57 111 57 225 q 57 363 119 475 q 181 587 290 648 q 398 710 533 710 q 652 710 739 666 q 826 622 871 541 q 917 460 917 354 z m 601 352 q 601 398 572 428 q 543 457 497 457 q 451 457 415 427 q 378 396 358 340 q 338 284 338 225 q 338 169 362 137 q 385 105 434 105 q 466 105 497 125 q 527 146 551 185 q 575 224 588 273 q 601 323 601 352 z"},".":{"x_min":0,"x_max":278,"ha":278,"o":"m 68 0 l 68 149 l 209 149 l 209 0 z"},"p":{"x_min":0,"x_max":611,"ha":611,"o":"m 570 267 q 570 134 517 62 q 464 -10 367 -10 q 312 -10 270 14 q 229 39 207 84 l 204 84 q 207 69 207 -5 l 207 -208 l 70 -208 l 70 407 q 70 481 66 528 l 199 528 q 202 520 203 494 q 205 468 205 442 l 207 442 q 253 540 376 540 q 468 540 519 469 q 570 397 570 267 z m 427 267 q 427 444 318 444 q 263 444 234 396 q 205 349 205 263 q 205 177 234 131 q 263 84 317 84 q 427 84 427 267 z"},"X":{"x_min":0,"x_max":667,"ha":667,"o":"m 507 0 l 334 274 l 161 0 l 9 0 l 247 362 l 29 688 l 181 688 l 334 445 l 487 688 l 638 688 l 429 362 l 658 0 z"},"*":{"x_min":0,"x_max":389,"ha":389,"o":"m 240 554 l 355 605 l 388 509 l 266 479 l 357 375 l 267 316 l 196 439 l 123 316 l 32 376 l 125 479 l 3 509 l 36 605 l 153 554 l 144 688 l 249 688 z"},"Y":{"x_min":0,"x_max":667,"ha":667,"o":"m 406 282 l 406 0 l 262 0 l 262 282 l 17 688 l 168 688 l 333 397 l 500 688 l 651 688 z"},"c":{"x_min":0,"x_max":556,"ha":556,"o":"m 290 -10 q 170 -10 104 62 q 39 133 39 261 q 39 392 105 465 q 171 538 292 538 q 385 538 446 491 q 507 444 523 362 l 385 355 q 379 396 355 420 q 332 444 289 444 q 183 444 183 267 q 183 84 291 84 q 330 84 356 109 q 383 133 389 182 l 527 176 q 520 122 488 79 q 457 37 405 13 q 354 -10 290 -10 z"},"!":{"x_min":0,"x_max":333,"ha":333,"o":"m 222 208 l 110 208 l 94 688 l 238 688 z m 94 0 l 94 132 l 235 132 l 235 0 z"},"/":{"x_min":0,"x_max":278,"ha":278,"o":"m 10 -20 l 152 725 l 268 725 l 128 -20 z"},"[":{"x_min":0,"x_max":333,"ha":333,"o":"m 56 -208 l 56 725 l 321 725 l 321 632 l 186 632 l 186 -114 l 321 -114 l 321 -208 z"},"6":{"x_min":0,"x_max":556,"ha":556,"o":"m 520 225 q 520 115 458 53 q 397 -10 289 -10 q 167 -10 102 75 q 37 161 37 328 q 37 512 103 605 q 169 698 292 698 q 379 698 430 660 q 480 621 501 540 l 372 522 q 354 590 289 590 q 234 590 202 535 q 171 479 171 367 q 193 404 232 423 q 271 443 320 443 q 413 443 466 384 q 520 326 520 225 z m 382 221 q 382 280 355 311 q 328 342 281 342 q 235 342 208 313 q 181 284 181 236 q 181 176 209 136 q 238 97 284 97 q 331 97 356 130 q 382 163 382 221 z"},"r":{"x_min":0,"x_max":389,"ha":389,"o":"m 70 0 l 70 404 q 70 448 69 477 q 67 506 66 528 l 197 528 q 198 520 201 475 q 203 430 203 416 l 205 416 q 225 471 241 494 q 256 517 278 528 q 299 539 332 539 q 358 539 374 531 l 374 417 q 341 424 315 424 q 264 424 236 382 q 207 341 207 259 l 207 0 z"},"2":{"x_min":0,"x_max":556,"ha":556,"o":"m 35 0 l 35 95 q 62 154 111 210 q 161 267 236 328 q 308 386 337 424 q 366 462 366 499 q 366 589 276 589 q 232 589 209 565 q 186 542 179 494 l 41 502 q 52 598 112 648 q 172 698 275 698 q 386 698 446 647 q 505 597 505 505 q 505 457 486 417 q 467 378 438 345 q 408 312 371 284 q 335 255 301 228 q 267 200 239 172 q 210 145 197 113 l 516 113 l 516 0 z"},"{":{"x_min":0,"x_max":389,"ha":389,"o":"m 272 -208 q 207 -208 167 -169 q 128 -131 128 -62 l 128 99 q 128 154 101 182 q 74 209 16 210 l 16 306 q 75 308 102 336 q 128 363 128 418 l 128 579 q 128 650 166 687 q 205 725 272 725 l 368 725 l 368 632 l 340 632 q 295 632 276 606 q 256 581 256 530 l 256 383 q 256 336 228 303 q 200 269 155 260 l 155 258 q 201 247 229 214 q 256 180 256 135 l 256 -12 q 256 -64 276 -89 q 295 -114 340 -114 l 368 -114 l 368 -208 z"},"9":{"x_min":0,"x_max":556,"ha":556,"o":"m 519 355 q 519 172 452 81 q 385 -10 262 -10 q 171 -10 120 29 q 68 68 47 152 l 176 170 q 195 98 264 98 q 321 98 352 153 q 383 208 384 317 q 366 280 323 260 q 281 239 232 239 q 142 239 88 301 q 35 362 35 468 q 35 576 97 637 q 160 698 275 698 q 398 698 459 613 q 519 527 519 355 z m 374 451 q 374 515 346 553 q 318 591 271 591 q 226 591 200 558 q 174 525 174 467 q 174 410 200 375 q 226 341 272 341 q 316 341 345 371 q 374 401 374 451 z"}," ":{"x_min":0,"x_max":278,"ha":278,"o":""},"I":{"x_min":0,"x_max":278,"ha":278,"o":"m 67 0 l 67 688 l 211 688 l 211 0 z"},"H":{"x_min":0,"x_max":722,"ha":722,"o":"m 511 0 l 511 295 l 211 295 l 211 0 l 67 0 l 67 688 l 211 688 l 211 414 l 511 414 l 511 688 l 655 688 l 655 0 z"},"4":{"x_min":0,"x_max":556,"ha":556,"o":"m 459 140 l 459 0 l 328 0 l 328 140 l 15 140 l 15 243 l 306 688 l 459 688 l 459 242 l 551 242 l 551 140 z m 328 467 q 328 494 330 524 q 332 555 333 564 q 320 537 287 485 l 127 242 l 328 242 z"},"~":{"x_min":0,"x_max":584,"ha":584,"o":"m 416 252 q 379 252 344 262 q 309 272 272 285 q 206 308 164 308 q 129 308 100 298 q 71 287 40 265 l 40 369 q 95 410 172 410 q 223 410 290 387 q 354 365 379 359 q 403 353 425 353 q 491 353 546 398 l 546 291 q 515 270 487 261 q 458 252 416 252 z"},"D":{"x_min":0,"x_max":722,"ha":722,"o":"m 680 349 q 680 243 638 163 q 597 84 520 42 q 444 0 345 0 l 67 0 l 67 688 l 316 688 q 490 688 585 600 q 680 513 680 349 z m 535 349 q 535 460 478 518 q 420 577 313 577 l 211 577 l 211 111 l 333 111 q 426 111 480 175 q 535 239 535 349 z"},"^":{"x_min":0,"x_max":584,"ha":584,"o":"m 450 251 l 291 618 l 133 251 l 22 251 l 213 688 l 370 688 l 562 251 z"},"0":{"x_min":0,"x_max":556,"ha":556,"o":"m 515 344 q 515 170 455 80 q 396 -10 276 -10 q 40 -10 40 344 q 40 468 65 546 q 91 624 143 661 q 195 698 280 698 q 402 698 458 610 q 515 521 515 344 z m 377 344 q 377 439 368 492 q 359 545 338 568 q 318 591 279 591 q 237 591 216 568 q 195 544 186 492 q 177 439 177 344 q 177 250 186 197 q 196 144 217 121 q 237 98 277 98 q 316 98 337 122 q 358 146 368 200 q 377 253 377 344 z"},"F":{"x_min":0,"x_max":611,"ha":611,"o":"m 211 577 l 211 364 l 563 364 l 563 252 l 211 252 l 211 0 l 67 0 l 67 688 l 574 688 l 574 577 z"},"`":{"x_min":0,"x_max":333,"ha":333,"o":"m 198 578 l 32 712 l 32 733 l 158 733 l 281 593 l 281 578 z"},"k":{"x_min":0,"x_max":556,"ha":556,"o":"m 407 0 l 266 239 l 207 198 l 207 0 l 70 0 l 70 725 l 207 725 l 207 310 l 396 528 l 543 528 l 357 322 l 557 0 z"},"u":{"x_min":0,"x_max":611,"ha":611,"o":"m 199 528 l 199 232 q 199 93 293 93 q 343 93 373 135 q 404 178 404 245 l 404 528 l 541 528 l 541 118 q 541 51 545 0 l 414 0 q 408 70 408 105 l 406 105 q 378 45 336 18 q 294 -10 236 -10 q 152 -10 107 42 q 62 93 62 193 l 62 528 z"},"]":{"x_min":0,"x_max":333,"ha":333,"o":"m 12 -208 l 12 -114 l 148 -114 l 148 632 l 12 632 l 12 725 l 277 725 l 277 -208 z"},"U":{"x_min":0,"x_max":722,"ha":722,"o":"m 353 -10 q 211 -10 135 60 q 60 129 60 258 l 60 688 l 204 688 l 204 269 q 204 188 243 145 q 282 103 357 103 q 434 103 476 147 q 517 191 517 274 l 517 688 l 661 688 l 661 265 q 661 134 580 62 q 500 -10 353 -10 z"},"o":{"x_min":0,"x_max":611,"ha":611,"o":"m 572 265 q 572 136 500 63 q 429 -10 303 -10 q 180 -10 109 63 q 39 137 39 265 q 39 392 109 465 q 180 538 306 538 q 436 538 504 468 q 572 397 572 265 z m 428 265 q 428 359 397 401 q 367 444 308 444 q 183 444 183 265 q 183 176 214 130 q 244 84 302 84 q 428 84 428 265 z"},"N":{"x_min":0,"x_max":722,"ha":722,"o":"m 486 0 l 186 530 q 195 453 195 406 l 195 0 l 67 0 l 67 688 l 231 688 l 536 154 q 527 228 527 288 l 527 688 l 655 688 l 655 0 z"},"+":{"x_min":0,"x_max":584,"ha":584,"o":"m 347 278 l 347 79 l 237 79 l 237 278 l 42 278 l 42 387 l 237 387 l 237 586 l 347 586 l 347 387 l 543 387 l 543 278 z"},"G":{"x_min":0,"x_max":778,"ha":778,"o":"m 394 103 q 450 103 502 119 q 555 136 584 161 l 584 256 l 416 256 l 416 363 l 716 363 l 716 110 q 661 54 573 22 q 486 -10 390 -10 q 222 -10 131 83 q 41 176 41 347 q 41 517 132 608 q 223 698 393 698 q 635 698 701 519 l 568 479 q 547 531 501 558 q 455 585 393 585 q 292 585 239 523 q 186 462 186 347 q 186 230 240 167 q 295 103 394 103 z"},"q":{"x_min":0,"x_max":611,"ha":611,"o":"m 41 264 q 41 395 94 467 q 148 539 245 539 q 360 539 405 443 q 405 466 407 493 q 410 521 412 528 l 544 528 q 541 476 541 407 l 541 -208 l 405 -208 l 405 12 l 407 88 l 406 88 q 361 -10 234 -10 q 142 -10 91 62 q 41 134 41 264 z m 406 267 q 406 351 377 398 q 349 444 294 444 q 184 444 184 264 q 184 84 293 84 q 347 84 376 132 q 406 179 406 267 z"},"d":{"x_min":0,"x_max":611,"ha":611,"o":"m 412 0 q 410 7 407 37 q 405 66 405 86 l 403 86 q 358 -10 234 -10 q 142 -10 91 62 q 41 134 41 264 q 41 395 94 467 q 147 538 244 538 q 300 538 341 515 q 382 491 404 445 l 405 445 l 404 532 l 404 725 l 541 725 l 541 115 q 541 66 545 0 z m 406 267 q 406 353 377 399 q 349 445 293 445 q 238 445 211 400 q 184 355 184 264 q 184 84 292 84 q 346 84 376 132 q 406 179 406 267 z"},"1":{"x_min":0,"x_max":556,"ha":556,"o":"m 63 0 l 63 102 l 233 102 l 233 571 l 68 468 l 68 576 l 241 688 l 371 688 l 371 102 l 528 102 l 528 0 z"},"5":{"x_min":0,"x_max":556,"ha":556,"o":"m 528 229 q 528 120 460 55 q 392 -10 273 -10 q 170 -10 108 37 q 45 83 31 172 l 168 183 q 179 139 206 119 q 233 99 275 99 q 326 99 357 132 q 387 165 387 226 q 387 280 358 313 q 330 345 278 345 q 221 345 185 301 l 51 301 l 75 688 l 488 688 l 488 586 l 199 586 l 188 412 q 238 456 312 456 q 411 456 469 395 q 528 334 528 229 z"}}}
